HIERARCHY
ROOT Hips
{
	OFFSET	0.00	0.00	0.00
	CHANNELS 6 Xposition Yposition Zposition Zrotation Xrotation Yrotation
	JOINT LeftUpLeg
	{
		OFFSET	 0.126116	-0.014019	-0.065224
		CHANNELS 3 Zrotation Xrotation Yrotation
		JOINT LeftLeg
		{
			OFFSET	 0.000000	 0.000000	 0.569914
			CHANNELS 3 Zrotation Xrotation Yrotation
			JOINT LeftFoot
			{
				OFFSET	 0.000000	 0.000000	 0.544423
				CHANNELS 3 Zrotation Xrotation Yrotation
				JOINT LeftToeBase
				{
					OFFSET	 0.000000	 0.000000	 0.207117
					CHANNELS 3 Zrotation Xrotation Yrotation
					End Site
					{
						OFFSET	 0.000000	 0.000000	 0.207117
					}
				}
			}
		}
	}
	JOINT RightUpLeg
	{
		OFFSET	-0.124023	-0.008373	-0.065224
		CHANNELS 3 Zrotation Xrotation Yrotation
		JOINT RightLeg
		{
			OFFSET	 0.000000	 0.000000	 0.570047
			CHANNELS 3 Zrotation Xrotation Yrotation
			JOINT RightFoot
			{
				OFFSET	 0.000000	 0.000000	 0.544354
				CHANNELS 3 Zrotation Xrotation Yrotation
				JOINT RightToeBase
				{
					OFFSET	 0.000000	 0.000000	 0.207540
					CHANNELS 3 Zrotation Xrotation Yrotation
					End Site
					{
						OFFSET	 0.000000	 0.000000	 0.207540
					}
				}
			}
		}
	}
	JOINT Spine
	{
		OFFSET	 0.000184	-0.007763	 0.117403
		CHANNELS 3 Zrotation Xrotation Yrotation
		JOINT Spine1
		{
			OFFSET	 0.000000	 0.000000	 0.137269
			CHANNELS 3 Zrotation Xrotation Yrotation
			JOINT Spine2
			{
				OFFSET	 0.000000	 0.000000	 0.156879
				CHANNELS 3 Zrotation Xrotation Yrotation
				JOINT LeftShoulder
				{
					OFFSET	 0.080501	-0.002496	 0.160144
					CHANNELS 3 Zrotation Xrotation Yrotation
					JOINT LeftArm
					{
						OFFSET	 0.000000	 0.000000	 0.164363
						CHANNELS 3 Zrotation Xrotation Yrotation
						JOINT LeftForeArm
						{
							OFFSET	 0.000000	 0.000000	 0.364576
							CHANNELS 3 Zrotation Xrotation Yrotation
							JOINT LeftHand
							{
								OFFSET	 0.000000	 0.000000	 0.360812
								CHANNELS 3 Zrotation Xrotation Yrotation
								JOINT LeftHandIndex1
								{
									OFFSET	 0.000000	 0.000000	 0.086006
									CHANNELS 3 Zrotation Xrotation Yrotation
									JOINT LeftHandIndex2
									{
										OFFSET	 0.000000	 0.000000	 0.047236
										CHANNELS 3 Zrotation Xrotation Yrotation
										JOINT LeftHandIndex3
										{
											OFFSET	-0.004284	-0.000551	 0.038166
											CHANNELS 3 Zrotation Xrotation Yrotation
											End Site
											{
												OFFSET	-0.004284	-0.000551	 0.038166
											}
										}
									}
								}
							}
						}
					}
				}
				JOINT Neck
				{
					OFFSET	 0.000000	 0.000000	 0.176489
					CHANNELS 3 Zrotation Xrotation Yrotation
					JOINT Head
					{
						OFFSET	 0.000000	-0.001747	 0.077940
						CHANNELS 3 Zrotation Xrotation Yrotation
						End Site
						{
							OFFSET	 0.000000	-0.001747	 0.077940
						}
					}
				}
				JOINT RightShoulder
				{
					OFFSET	-0.080363	 0.000306	 0.159706
					CHANNELS 3 Zrotation Xrotation Yrotation
					JOINT RightArm
					{
						OFFSET	 0.000000	 0.000000	 0.164196
						CHANNELS 3 Zrotation Xrotation Yrotation
						JOINT RightForeArm
						{
							OFFSET	 0.000000	 0.000000	 0.365611
							CHANNELS 3 Zrotation Xrotation Yrotation
							JOINT RightHand
							{
								OFFSET	 0.000000	 0.000000	 0.360648
								CHANNELS 3 Zrotation Xrotation Yrotation
								JOINT RightHandIndex1
								{
									OFFSET	 0.000000	 0.000000	 0.069977
									CHANNELS 3 Zrotation Xrotation Yrotation
									JOINT RightHandIndex2
									{
										OFFSET	 0.000000	 0.000000	 0.052305
										CHANNELS 3 Zrotation Xrotation Yrotation
										JOINT RightHandIndex3
										{
											OFFSET	 0.009002	-0.000782	 0.042196
											CHANNELS 3 Zrotation Xrotation Yrotation
											End Site
											{
												OFFSET	 0.009002	-0.000782	 0.042196
											}
										}
									}
								}
							}
						}
					}
				}
			}
		}
	}
}
MOTION
Frames:    5
Frame Time: 0.03333334
-0.000379	 0.017503	 1.301893	-0.001173	 0.015785	-0.069379	-17.474630	-1.763248	-179.198400	 1.471228	-12.119530	-0.707822	-3.214404	 65.755680	-3.263082	-2.385833	 28.452760	 0.000004	 17.354670	-2.270782	 179.377100	-1.449358	-12.787490	 0.734374	 3.210777	 65.900090	 3.098764	 2.384658	 28.388730	 0.000004	 1.457021	 1.829837	 0.062607	 0.803732	 6.776823	 0.262585	-2.350683	-8.692433	-0.623662	-91.776180	 78.527450	 180.000000	 65.363040	 44.932060	-44.713590	-7.756287	 4.330502	-10.890540	-31.083770	-9.689011	-4.582075	-2.635965	 4.993658	 6.788941	-5.165319	 0.784187	 3.516649	-5.225038	 0.466231	 0.424329	-0.000002	-3.783157	-0.089647	-2.189741	 3.073864	 0.058746	 89.782160	 78.203900	 179.999900	 5.231608	 13.204170	 91.149380	-33.966800	-3.653199	 10.907680	 4.009593	-10.471690	-5.933308	 6.112037	 4.509576	-0.364401	 4.968462	 1.518543	-9.347576	 5.168945	 0.703820	 2.021906
-0.000431	 0.017378	 1.303978	-0.000795	 0.013202	-0.098919	-17.461960	-1.754656	-179.172000	 1.471609	-12.089240	-0.706000	-3.242619	 65.400420	-3.227185	-2.385833	 28.452760	 0.000004	 17.342420	-2.289657	 179.400000	-1.448549	-12.848390	 0.737991	 3.241702	 65.590680	 3.059932	 2.384658	 28.388730	 0.000004	 1.898588	 1.878434	 0.060522	 1.032917	 6.622839	 0.334750	-3.040318	-8.471840	-0.796713	-91.776140	 78.527430	 180.000000	 65.432090	 44.878260	-44.955420	-7.768602	 4.266376	-10.726710	-30.927630	-7.875733	-4.508333	-2.635965	 4.993658	 6.788941	-5.165319	 0.784187	 3.516649	-5.225038	 0.466231	 0.424329	-0.000002	-3.783157	-0.089647	-2.845059	 3.135851	 0.077878	 89.782130	 78.203900	 180.000000	 5.360678	 13.433770	 91.231210	-34.136470	-3.676783	 10.870590	 4.199877	-8.799726	-6.024651	 6.112037	 4.509576	-0.364401	 4.968462	 1.518543	-9.347576	 5.168945	 0.703820	 2.021906
-0.000474	 0.017269	 1.305756	-0.000541	 0.010820	-0.121687	-17.450730	-1.751039	-179.151200	 1.471812	-12.072980	-0.705023	-3.266593	 65.101440	-3.196244	-2.385833	 28.452760	 0.000004	 17.331730	-2.306846	 179.417500	-1.447847	-12.901610	 0.741157	 3.267718	 65.326610	 3.026849	 2.384658	 28.388730	 0.000004	 2.255174	 1.928733	 0.056235	 1.216302	 6.461363	 0.394944	-3.593698	-8.242228	-0.931184	-91.776190	 78.527420	-180.000000	 65.526990	 44.802640	-45.209960	-7.778424	 4.214312	-10.593800	-30.768940	-5.925938	-4.436419	-2.635965	 4.993658	 6.788941	-5.165319	 0.784187	 3.516649	-5.225038	 0.466231	 0.424329	-0.000002	-3.783157	-0.089647	-3.374587	 3.202487	 0.094347	 89.782070	 78.203890	-180.000000	 5.484900	 13.703820	 91.305200	-34.298480	-3.702864	 10.846100	 4.394645	-6.908265	-6.104870	 6.112037	 4.509576	-0.364401	 4.968462	 1.518543	-9.347576	 5.168945	 0.703820	 2.021906
-0.000510	 0.017133	 1.307807	-0.000773	 0.008511	-0.141734	-17.437030	-1.750224	-179.133100	 1.471924	-12.064300	-0.704498	-3.294759	 64.759000	-3.159590	-2.385833	 28.452760	 0.000004	 17.319390	-2.326516	 179.432800	-1.447092	-12.958310	 0.744529	 3.297576	 65.016950	 2.988271	 2.384658	 28.388730	 0.000004	 2.641377	 1.995580	 0.045017	 1.413008	 6.241831	 0.461254	-4.187935	-7.932844	-1.069039	-91.776120	 78.527420	 179.999900	 65.687430	 44.706050	-45.590920	-7.790030	 4.152672	-10.436500	-30.559570	-3.264619	-4.349849	-2.635965	 4.993658	 6.788941	-5.165319	 0.784187	 3.516649	-5.225038	 0.466231	 0.424329	-0.000002	-3.783157	-0.089647	-3.948015	 3.295643	 0.113606	 89.782110	 78.203920	 180.000000	 5.539849	 14.152020	 91.343600	-34.368240	-3.722860	 10.860500	 3.770767	-3.983784	-6.167485	 6.112037	 4.509576	-0.364401	 4.968462	 1.518543	-9.347576	 5.168945	 0.703820	 2.021906
-0.000506	 0.016981	 1.309500	-0.000962	 0.006466	-0.157201	-17.424540	-1.751935	-179.118900	 1.471942	-12.063000	-0.704421	-3.319177	 64.456810	-3.127285	-2.385833	 28.452760	 0.000004	 17.308070	-2.343052	 179.444500	-1.446463	-13.005410	 0.747324	 3.322997	 64.739010	 2.954813	 2.384658	 28.388730	 0.000004	 2.956405	 2.062423	 0.032986	 1.571422	 6.020310	 0.518496	-4.668447	-7.623370	-1.174814	-91.776180	 78.527400	 180.000000	 65.889900	 44.633940	-46.035820	-7.799717	 4.099950	-10.302060	-30.357570	-0.654316	-4.278358	-2.635965	 4.993658	 6.788941	-5.165319	 0.784187	 3.516649	-5.225038	 0.466231	 0.424329	-0.000002	-3.783157	-0.089647	-4.416327	 3.392879	 0.130850	 89.782160	 78.203870	 179.999900	 5.518182	 15.271150	 91.689060	-33.840130	-3.415417	 10.288530	 3.043056	-1.276011	-6.171466	 6.112037	 4.509576	-0.364401	 4.968462	 1.518543	-9.347576	 5.168945	 0.703820	 2.021906
